<?xml version="1.0" encoding="utf-8"?>
<!-- Generator: Adobe Illustrator 17.0.0, SVG Export Plug-In . SVG Version: 6.00 Build 0)  -->
<!DOCTYPE svg PUBLIC "-//W3C//DTD SVG 1.1//EN" "http://www.w3.org/Graphics/SVG/1.1/DTD/svg11.dtd">
<svg version="1.1" id="图层_1" xmlns="http://www.w3.org/2000/svg" xmlns:xlink="http://www.w3.org/1999/xlink" x="0px" y="0px"
	  viewBox="0 0 640 26" style="enable-background:new 0 0 640 26;" xml:space="preserve" preserveAspectRatio="none">
<g>
	<g>
		<path style="fill:#19D031;" d="M0,26h7.5V0H0V26z M11.6,26h7.6V0h-7.6V26z M23.3,26h7.6V0h-7.6V26z M34.9,26h7.5V0h-7.5V26z
			 M46.6,26h7.6V0h-7.6V26z M58.2,26h7.5V0h-7.5C58.2,0,58.2,26,58.2,26z M69.9,26h7.5V0h-7.5V26z M81.5,26H89V0h-7.5V26z M93.2,26
			h7.5V0h-7.5V26z M104.8,26h7.5V0h-7.5V26z M116.5,0v26h7.5V0H116.5z"/>
	</g>
</g>
<g>
	<g>
		<path style="fill:#1AA9FE;" d="M129,26h7.5V0H129V26z M140.6,26h7.6V0h-7.6V26z M152.3,26h7.6V0h-7.6V26z M163.9,26h7.5V0h-7.5V26
			z M175.6,26h7.6V0h-7.6V26z M187.2,26h7.5V0h-7.5C187.2,0,187.2,26,187.2,26z M198.9,26h7.5V0h-7.5V26z M210.5,26h7.5V0h-7.5V26z
			 M222.2,26h7.5V0h-7.5V26z M233.8,26h7.5V0h-7.5V26z M245.5,0v26h7.5V0H245.5z"/>
	</g>
</g>
<g>
	<g>
		<path style="fill:#FED33A;" d="M258,26h7.5V0H258V26z M269.6,26h7.6V0h-7.6V26z M281.3,26h7.6V0h-7.6V26z M292.9,26h7.5V0h-7.5V26
			z M304.6,26h7.6V0h-7.6V26z M316.2,26h7.5V0h-7.5C316.2,0,316.2,26,316.2,26z M327.9,26h7.5V0h-7.5V26z M339.5,26h7.5V0h-7.5V26z
			 M351.2,26h7.5V0h-7.5V26z M362.8,26h7.5V0h-7.5V26z M374.5,0v26h7.5V0H374.5z"/>
	</g>
</g>
<g>
	<g>
		<path style="fill:#F3874A;" d="M387,26h7.5V0H387V26z M398.6,26h7.6V0h-7.6V26z M410.3,26h7.6V0h-7.6V26z M421.9,26h7.5V0h-7.5V26
			z M433.6,26h7.6V0h-7.6V26z M445.2,26h7.5V0h-7.5C445.2,0,445.2,26,445.2,26z M456.9,26h7.5V0h-7.5V26z M468.5,26h7.5V0h-7.5V26z
			 M480.2,26h7.5V0h-7.5V26z M491.8,26h7.5V0h-7.5V26z M503.5,0v26h7.5V0H503.5z"/>
	</g>
</g>
<g>
	<g>
		<path style="fill:#FF6666;" d="M516,26h7.5V0H516V26z M527.6,26h7.6V0h-7.6V26z M539.3,26h7.6V0h-7.6V26z M550.9,26h7.5V0h-7.5V26
			z M562.6,26h7.6V0h-7.6V26z M574.2,26h7.5V0h-7.5C574.2,0,574.2,26,574.2,26z M585.9,26h7.5V0h-7.5V26z M597.5,26h7.5V0h-7.5V26z
			 M609.2,26h7.5V0h-7.5V26z M620.8,26h7.5V0h-7.5V26z M632.5,0v26h7.5V0H632.5z"/>
	</g>
</g>
</svg>
